<?xml version="1.0" encoding="UTF-8"?>
<svg id="Layer_2" data-name="Layer 2" xmlns="http://www.w3.org/2000/svg" xmlns:xlink="http://www.w3.org/1999/xlink" viewBox="0 0 2146 1269">
  <defs>
    <style>
      .cls-1, .cls-2, .cls-3, .cls-4 {
        stroke-width: 0px;
      }

      .cls-1, .cls-5 {
        fill: none;
      }

      .cls-2 {
        fill: url(#New_Pattern);
      }

      .cls-5 {
        stroke: #ffebfb;
        stroke-miterlimit: 10;
        stroke-width: 1.75px;
      }

      .cls-3 {
        fill: #ffebfb;
      }

      .cls-4 {
        fill: #0020ad;
      }
    </style>
    <pattern id="New_Pattern" data-name="New Pattern" x="0" y="0" width="421.15" height="711.54" patternTransform="translate(113 76)" patternUnits="userSpaceOnUse" viewBox="0 0 421.15 711.54">
      <g>
        <rect class="cls-1" width="421.15" height="711.54"/>
        <g id="Layer_1-2" data-name="Layer 1-2">
          <g>
            <path class="cls-3" d="m594.61,714.65c0-10.46-58.65-6.03-63.84-15.38-4.78-8.6,33.82-53.72,25.39-60.92-7.47-6.38-48.99,37.13-58.82,32.17-8.88-4.48,3.23-63.47-7.19-66.55-9.64-2.85-32.36,53.02-43.02,51.56-10.03-1.38-16.4-61.4-27.09-61.4s-17.06,60.02-27.09,61.4c-10.66,1.46-33.38-54.41-43.02-51.56-10.43,3.08,1.69,62.07-7.19,66.55-9.82,4.96-51.35-38.55-58.82-32.17-8.43,7.2,30.16,52.33,25.39,60.92-5.19,9.35-63.84,4.92-63.84,15.38s58.65,6.03,63.84,15.38c4.78,8.6-33.82,53.72-25.39,60.92,7.47,6.38,48.99-37.13,58.82-32.17,8.88,4.48-3.23,63.47,7.19,66.55,9.64,2.85,32.36-53.02,43.02-51.56,10.03,1.38,16.4,61.4,27.09,61.4s17.06-60.02,27.09-61.4c10.66-1.46,33.38,54.41,43.02,51.56,10.43-3.08-1.69-62.07,7.19-66.55,9.82-4.96,51.35,38.55,58.82,32.17,8.43-7.2-30.16-52.33-25.39-60.92,5.19-9.35,63.84-4.92,63.84-15.38h0Z"/>
            <path class="cls-5" d="m594.61,714.65c0-10.46-58.65-6.03-63.84-15.38-4.78-8.6,33.82-53.72,25.39-60.92-7.47-6.38-48.99,37.13-58.82,32.17-8.88-4.48,3.23-63.47-7.19-66.55-9.64-2.85-32.36,53.02-43.02,51.56-10.03-1.38-16.4-61.4-27.09-61.4s-17.06,60.02-27.09,61.4c-10.66,1.46-33.38-54.41-43.02-51.56-10.43,3.08,1.69,62.07-7.19,66.55-9.82,4.96-51.35-38.55-58.82-32.17-8.43,7.2,30.16,52.33,25.39,60.92-5.19,9.35-63.84,4.92-63.84,15.38s58.65,6.03,63.84,15.38c4.78,8.6-33.82,53.72-25.39,60.92,7.47,6.38,48.99-37.13,58.82-32.17,8.88,4.48-3.23,63.47,7.19,66.55,9.64,2.85,32.36-53.02,43.02-51.56,10.03,1.38,16.4,61.4,27.09,61.4s17.06-60.02,27.09-61.4c10.66-1.46,33.38,54.41,43.02,51.56,10.43-3.08-1.69-62.07,7.19-66.55,9.82-4.96,51.35,38.55,58.82,32.17,8.43-7.2-30.16-52.33-25.39-60.92,5.19-9.35,63.84-4.92,63.84-15.38h0Z"/>
          </g>
        </g>
        <g id="Layer_1-2-2" data-name="Layer 1-2">
          <g>
            <path class="cls-3" d="m173.45,714.65c0-10.46-58.65-6.03-63.84-15.38-4.78-8.6,33.82-53.72,25.39-60.92-7.47-6.38-48.99,37.13-58.82,32.17-8.88-4.48,3.23-63.47-7.19-66.55-9.64-2.85-32.36,53.02-43.02,51.56-10.03-1.38-16.4-61.4-27.09-61.4s-17.06,60.02-27.09,61.4c-10.66,1.46-33.38-54.41-43.02-51.56-10.43,3.08,1.69,62.07-7.19,66.55-9.82,4.96-51.35-38.55-58.82-32.17-8.43,7.2,30.16,52.33,25.39,60.92-5.19,9.35-63.84,4.92-63.84,15.38s58.65,6.03,63.84,15.38c4.78,8.6-33.82,53.72-25.39,60.92,7.47,6.38,48.99-37.13,58.82-32.17,8.88,4.48-3.23,63.47,7.19,66.55,9.64,2.85,32.36-53.02,43.02-51.56,10.03,1.38,16.4,61.4,27.09,61.4s17.06-60.02,27.09-61.4c10.66-1.46,33.38,54.41,43.02,51.56,10.43-3.08-1.69-62.07,7.19-66.55,9.82-4.96,51.35,38.55,58.82,32.17,8.43-7.2-30.16-52.33-25.39-60.92,5.19-9.35,63.84-4.92,63.84-15.38h0Z"/>
            <path class="cls-5" d="m173.45,714.65c0-10.46-58.65-6.03-63.84-15.38-4.78-8.6,33.82-53.72,25.39-60.92-7.47-6.38-48.99,37.13-58.82,32.17-8.88-4.48,3.23-63.47-7.19-66.55-9.64-2.85-32.36,53.02-43.02,51.56-10.03-1.38-16.4-61.4-27.09-61.4s-17.06,60.02-27.09,61.4c-10.66,1.46-33.38-54.41-43.02-51.56-10.43,3.08,1.69,62.07-7.19,66.55-9.82,4.96-51.35-38.55-58.82-32.17-8.43,7.2,30.16,52.33,25.39,60.92-5.19,9.35-63.84,4.92-63.84,15.38s58.65,6.03,63.84,15.38c4.78,8.6-33.82,53.72-25.39,60.92,7.47,6.38,48.99-37.13,58.82-32.17,8.88,4.48-3.23,63.47,7.19,66.55,9.64,2.85,32.36-53.02,43.02-51.56,10.03,1.38,16.4,61.4,27.09,61.4s17.06-60.02,27.09-61.4c10.66-1.46,33.38,54.41,43.02,51.56,10.43-3.08-1.69-62.07,7.19-66.55,9.82-4.96,51.35,38.55,58.82,32.17,8.43-7.2-30.16-52.33-25.39-60.92,5.19-9.35,63.84-4.92,63.84-15.38h0Z"/>
          </g>
        </g>
        <g id="Layer_1-2-3" data-name="Layer 1-2">
          <g>
            <path class="cls-3" d="m384.03,358.88c0-10.46-58.65-6.03-63.84-15.38-4.78-8.6,33.82-53.72,25.39-60.92-7.47-6.38-48.99,37.13-58.82,32.17-8.88-4.48,3.23-63.47-7.19-66.55-9.64-2.85-32.36,53.02-43.02,51.56-10.03-1.38-16.4-61.4-27.09-61.4s-17.06,60.02-27.09,61.4c-10.66,1.46-33.38-54.41-43.02-51.56-10.43,3.08,1.69,62.07-7.19,66.55-9.82,4.96-51.35-38.55-58.82-32.17-8.43,7.2,30.16,52.33,25.39,60.92-5.19,9.35-63.84,4.92-63.84,15.38s58.65,6.03,63.84,15.38c4.78,8.6-33.82,53.72-25.39,60.92,7.47,6.38,48.99-37.13,58.82-32.17,8.88,4.48-3.23,63.47,7.19,66.55,9.64,2.85,32.36-53.02,43.02-51.56,10.03,1.38,16.4,61.4,27.09,61.4s17.06-60.02,27.09-61.4c10.66-1.46,33.38,54.41,43.02,51.56,10.43-3.08-1.69-62.07,7.19-66.55,9.82-4.96,51.35,38.55,58.82,32.17,8.43-7.2-30.16-52.33-25.39-60.92,5.19-9.35,63.84-4.92,63.84-15.38h0Z"/>
            <path class="cls-5" d="m384.03,358.88c0-10.46-58.65-6.03-63.84-15.38-4.78-8.6,33.82-53.72,25.39-60.92-7.47-6.38-48.99,37.13-58.82,32.17-8.88-4.48,3.23-63.47-7.19-66.55-9.64-2.85-32.36,53.02-43.02,51.56-10.03-1.38-16.4-61.4-27.09-61.4s-17.06,60.02-27.09,61.4c-10.66,1.46-33.38-54.41-43.02-51.56-10.43,3.08,1.69,62.07-7.19,66.55-9.82,4.96-51.35-38.55-58.82-32.17-8.43,7.2,30.16,52.33,25.39,60.92-5.19,9.35-63.84,4.92-63.84,15.38s58.65,6.03,63.84,15.38c4.78,8.6-33.82,53.72-25.39,60.92,7.47,6.38,48.99-37.13,58.82-32.17,8.88,4.48-3.23,63.47,7.19,66.55,9.64,2.85,32.36-53.02,43.02-51.56,10.03,1.38,16.4,61.4,27.09,61.4s17.06-60.02,27.09-61.4c10.66-1.46,33.38,54.41,43.02,51.56,10.43-3.08-1.69-62.07,7.19-66.55,9.82-4.96,51.35,38.55,58.82,32.17,8.43-7.2-30.16-52.33-25.39-60.92,5.19-9.35,63.84-4.92,63.84-15.38h0Z"/>
          </g>
        </g>
        <g id="Layer_1-2-4" data-name="Layer 1-2">
          <g>
            <path class="cls-3" d="m594.61,3.12c0-10.46-58.65-6.03-63.84-15.38-4.78-8.6,33.82-53.72,25.39-60.92-7.47-6.38-48.99,37.13-58.82,32.17-8.88-4.48,3.23-63.47-7.19-66.55-9.64-2.85-32.36,53.02-43.02,51.56-10.03-1.38-16.4-61.4-27.09-61.4s-17.06,60.02-27.09,61.4c-10.66,1.46-33.38-54.41-43.02-51.56-10.43,3.08,1.69,62.07-7.19,66.55-9.82,4.96-51.35-38.55-58.82-32.17-8.43,7.2,30.16,52.33,25.39,60.92-5.19,9.35-63.84,4.92-63.84,15.38s58.65,6.03,63.84,15.38c4.78,8.6-33.82,53.72-25.39,60.92,7.47,6.38,48.99-37.13,58.82-32.17,8.88,4.48-3.23,63.47,7.19,66.55,9.64,2.85,32.36-53.02,43.02-51.56,10.03,1.38,16.4,61.4,27.09,61.4s17.06-60.02,27.09-61.4c10.66-1.46,33.38,54.41,43.02,51.56,10.43-3.08-1.69-62.07,7.19-66.55,9.82-4.96,51.35,38.55,58.82,32.17,8.43-7.2-30.16-52.33-25.39-60.92,5.19-9.35,63.84-4.92,63.84-15.38h0Z"/>
            <path class="cls-5" d="m594.61,3.12c0-10.46-58.65-6.03-63.84-15.38-4.78-8.6,33.82-53.72,25.39-60.92-7.47-6.38-48.99,37.13-58.82,32.17-8.88-4.48,3.23-63.47-7.19-66.55-9.64-2.85-32.36,53.02-43.02,51.56-10.03-1.38-16.4-61.4-27.09-61.4s-17.06,60.02-27.09,61.4c-10.66,1.46-33.38-54.41-43.02-51.56-10.43,3.08,1.69,62.07-7.19,66.55-9.82,4.96-51.35-38.55-58.82-32.17-8.43,7.2,30.16,52.33,25.39,60.92-5.19,9.35-63.84,4.92-63.84,15.38s58.65,6.03,63.84,15.38c4.78,8.6-33.82,53.72-25.39,60.92,7.47,6.38,48.99-37.13,58.82-32.17,8.88,4.48-3.23,63.47,7.19,66.55,9.64,2.85,32.36-53.02,43.02-51.56,10.03,1.38,16.4,61.4,27.09,61.4s17.06-60.02,27.09-61.4c10.66-1.46,33.38,54.41,43.02,51.56,10.43-3.08-1.69-62.07,7.19-66.55,9.82-4.96,51.35,38.55,58.82,32.17,8.43-7.2-30.16-52.33-25.39-60.92,5.19-9.35,63.84-4.92,63.84-15.38h0Z"/>
          </g>
        </g>
        <g id="Layer_1-2-5" data-name="Layer 1-2">
          <g>
            <path class="cls-3" d="m173.45,3.12c0-10.46-58.65-6.03-63.84-15.38-4.78-8.6,33.82-53.72,25.39-60.92-7.47-6.38-48.99,37.13-58.82,32.17-8.88-4.48,3.23-63.47-7.19-66.55-9.64-2.85-32.36,53.02-43.02,51.56-10.03-1.38-16.4-61.4-27.09-61.4s-17.06,60.02-27.09,61.4c-10.66,1.46-33.38-54.41-43.02-51.56-10.43,3.08,1.69,62.07-7.19,66.55-9.82,4.96-51.35-38.55-58.82-32.17-8.43,7.2,30.16,52.33,25.39,60.92-5.19,9.35-63.84,4.92-63.84,15.38s58.65,6.03,63.84,15.38c4.78,8.6-33.82,53.72-25.39,60.92,7.47,6.38,48.99-37.13,58.82-32.17,8.88,4.48-3.23,63.47,7.19,66.55,9.64,2.85,32.36-53.02,43.02-51.56,10.03,1.38,16.4,61.4,27.09,61.4S15.94,63.62,25.97,62.24c10.66-1.46,33.38,54.41,43.02,51.56,10.43-3.08-1.69-62.07,7.19-66.55,9.82-4.96,51.35,38.55,58.82,32.17,8.43-7.2-30.16-52.33-25.39-60.92,5.19-9.35,63.84-4.92,63.84-15.38h0Z"/>
            <path class="cls-5" d="m173.45,3.12c0-10.46-58.65-6.03-63.84-15.38-4.78-8.6,33.82-53.72,25.39-60.92-7.47-6.38-48.99,37.13-58.82,32.17-8.88-4.48,3.23-63.47-7.19-66.55-9.64-2.85-32.36,53.02-43.02,51.56-10.03-1.38-16.4-61.4-27.09-61.4s-17.06,60.02-27.09,61.4c-10.66,1.46-33.38-54.41-43.02-51.56-10.43,3.08,1.69,62.07-7.19,66.55-9.82,4.96-51.35-38.55-58.82-32.17-8.43,7.2,30.16,52.33,25.39,60.92-5.19,9.35-63.84,4.92-63.84,15.38s58.65,6.03,63.84,15.38c4.78,8.6-33.82,53.72-25.39,60.92,7.47,6.38,48.99-37.13,58.82-32.17,8.88,4.48-3.23,63.47,7.19,66.55,9.64,2.85,32.36-53.02,43.02-51.56,10.03,1.38,16.4,61.4,27.09,61.4S15.94,63.62,25.97,62.24c10.66-1.46,33.38,54.41,43.02,51.56,10.43-3.08-1.69-62.07,7.19-66.55,9.82-4.96,51.35,38.55,58.82,32.17,8.43-7.2-30.16-52.33-25.39-60.92,5.19-9.35,63.84-4.92,63.84-15.38h0Z"/>
          </g>
        </g>
      </g>
    </pattern>
  </defs>
  <g id="Layer_1-2" data-name="Layer 1">
    <rect class="cls-4" width="2146" height="1269"/>
    <rect class="cls-2" x="94.5" y="59.5" width="1951" height="1114"/>
  </g>
</svg>