<?xml version="1.0" encoding="UTF-8"?>
<svg id="Layer_2" data-name="Layer 2" xmlns="http://www.w3.org/2000/svg" viewBox="0 0 264.31 119.9">
  <defs>
    <style>
      .cls-1 {
        fill: #0020ad;
        stroke-width: 0px;
      }
    </style>
  </defs>
  <g id="Layer_1-2" data-name="Layer 1">
    <path class="cls-1" d="m43.41,81.77c-7.37,7.07-14.74,14.15-22.11,21.22-1.86,1.78-3.72,3.57-5.57,5.35-.87.83-1.73,1.66-2.6,2.5-.43.42-.87.83-1.3,1.25-.14.13-.64.5-.74.71-.25.48-1.11.22.51.38,1.19.12,1.01.29.56-.52-.26-.47-.51-.94-.75-1.41-.52-1.02-1.02-2.05-1.46-3.1-.85-2.01-1.55-4.09-2.13-6.19-1.36-4.92-1.93-9.95-1.78-15.05l-5.89.8c2.45,7.5,4.91,14.99,7.36,22.49.35,1.08.7,2.15,1.06,3.23,1.01,3.09,6.04,2.73,5.89-.8-.86-20.71,10.86-39.5,24.23-54.36,13.08-14.54,28.88-26.48,46.32-35.31s36.23-14.4,55.51-16.25,40.42.2,59.74,5.96c19.19,5.72,37.44,15.04,53.12,27.54,1.98,1.58,3.93,3.22,5.83,4.89,1.22,1.07,3.05,1.2,4.24,0,1.09-1.09,1.22-3.17,0-4.24-15.87-13.96-34.4-24.66-54.35-31.63S168.38-.83,147.58.19c-20.51,1-40.66,6.08-59.35,14.56-18.35,8.33-35.23,20.08-49.33,34.49-14.81,15.13-28.08,34.03-30.25,55.64-.26,2.57-.32,5.15-.22,7.74l5.89-.8c-2.45-7.5-4.91-14.99-7.36-22.49-.35-1.08-.7-2.15-1.06-3.23-1.05-3.2-5.79-2.65-5.89.8-.15,5.22.42,10.48,1.71,15.54.62,2.44,1.41,4.84,2.37,7.17s1.98,4.92,3.44,7.04c1.98,2.87,5.18,2.72,7.63.54,2.1-1.87,4.07-3.9,6.1-5.85,4.09-3.92,8.18-7.85,12.26-11.77,4.71-4.52,9.41-9.04,14.12-13.55,2.79-2.68-1.46-6.92-4.24-4.24h0Z"/>
  </g>
</svg>