<?xml version="1.0" encoding="UTF-8"?>
<svg id="Layer_2" data-name="Layer 2" xmlns="http://www.w3.org/2000/svg" viewBox="0 0 350.88 242.78">
  <defs>
    <style>
      .cls-1 {
        fill: none;
        stroke: #fff;
        stroke-miterlimit: 10;
        stroke-width: 1.75px;
      }

      .cls-2 {
        fill: #fff;
        stroke-width: 0px;
      }
    </style>
  </defs>
  <g id="Layer_1-2" data-name="Layer 1">
    <g>
      <path class="cls-2" d="m350.01,121.39c0,10.46-58.65,6.03-63.84,15.38-4.77,8.59,33.82,53.72,25.39,60.92-7.47,6.38-49-37.13-58.82-32.17-8.88,4.48,3.24,63.47-7.19,66.55-9.64,2.85-32.36-53.02-43.02-51.56-10.03,1.38-16.4,61.4-27.09,61.4s-17.06-60.02-27.09-61.4c-10.66-1.46-33.38,54.41-43.02,51.56-10.42-3.08,1.69-62.07-7.19-66.55-9.83-4.96-51.35,38.55-58.82,32.17-8.43-7.2,30.17-52.32,25.39-60.92-5.19-9.35-63.84-4.92-63.84-15.38s58.65-6.03,63.84-15.38c4.77-8.59-33.82-53.72-25.39-60.92,7.47-6.38,49,37.13,58.82,32.17,8.88-4.48-3.24-63.47,7.19-66.55,9.64-2.85,32.36,53.02,43.02,51.56,10.03-1.38,16.4-61.4,27.09-61.4s17.06,60.02,27.09,61.4c10.66,1.46,33.38-54.41,43.02-51.56,10.42,3.08-1.69,62.07,7.19,66.55,9.83,4.96,51.35-38.55,58.82-32.17,8.43,7.2-30.17,52.32-25.39,60.92,5.19,9.35,63.84,4.92,63.84,15.38Z"/>
      <path class="cls-1" d="m350.01,121.39c0,10.46-58.65,6.03-63.84,15.38-4.77,8.59,33.82,53.72,25.39,60.92-7.47,6.38-49-37.13-58.82-32.17-8.88,4.48,3.24,63.47-7.19,66.55-9.64,2.85-32.36-53.02-43.02-51.56-10.03,1.38-16.4,61.4-27.09,61.4s-17.06-60.02-27.09-61.4c-10.66-1.46-33.38,54.41-43.02,51.56-10.42-3.08,1.69-62.07-7.19-66.55-9.83-4.96-51.35,38.55-58.82,32.17-8.43-7.2,30.17-52.32,25.39-60.92-5.19-9.35-63.84-4.92-63.84-15.38s58.65-6.03,63.84-15.38c4.77-8.59-33.82-53.72-25.39-60.92,7.47-6.38,49,37.13,58.82,32.17,8.88-4.48-3.24-63.47,7.19-66.55,9.64-2.85,32.36,53.02,43.02,51.56,10.03-1.38,16.4-61.4,27.09-61.4s17.06,60.02,27.09,61.4c10.66,1.46,33.38-54.41,43.02-51.56,10.42,3.08-1.69,62.07,7.19,66.55,9.83,4.96,51.35-38.55,58.82-32.17,8.43,7.2-30.17,52.32-25.39,60.92,5.19,9.35,63.84,4.92,63.84,15.38Z"/>
    </g>
  </g>
</svg>